<svg width="24" height="24" viewBox="0 0 24 24" fill="none" xmlns="http://www.w3.org/2000/svg">
<path d="M23.3999 12.0879V16.7505C23.4004 16.9583 23.3453 17.1629 23.24 17.3448C23.1346 17.5266 22.9825 17.6798 22.798 17.7899L12.6726 23.8156C12.4692 23.9362 12.2345 24 11.9951 24C11.7557 24 11.5211 23.9362 11.3176 23.8156L1.2039 17.7862C1.01912 17.6762 0.866706 17.5231 0.761042 17.3412C0.655378 17.1594 0.599946 16.9548 0.599976 16.7468V12.0879C0.599945 11.8695 0.66106 11.655 0.776985 11.4668C0.892909 11.2786 1.05942 11.1234 1.25926 11.0173C1.4591 10.9113 1.68498 10.8583 1.91349 10.8637C2.14201 10.8692 2.36483 10.933 2.55885 11.0485L11.3176 16.2678C11.5211 16.3883 11.7557 16.4522 11.9951 16.4522C12.2345 16.4522 12.4692 16.3883 12.6726 16.2678L21.4333 11.0485C21.6274 10.9304 21.8511 10.8645 22.081 10.8578C22.311 10.851 22.5385 10.9035 22.7398 11.0099C22.9411 11.1163 23.1086 11.2726 23.2248 11.4623C23.341 11.652 23.4015 11.8681 23.3999 12.0879V12.0879Z" fill="#4873E0"/>
<path d="M11.3216 13.522L2.39385 7.96006C2.21202 7.84598 2.06219 7.68792 1.95835 7.50062C1.85451 7.31332 1.80005 7.1029 1.80005 6.88899C1.80005 6.67508 1.85451 6.46465 1.95835 6.27736C2.06219 6.09006 2.21202 5.93199 2.39385 5.81791L11.3177 0.196687C11.5208 0.0682253 11.7565 0 11.9972 0C12.2378 0 12.4735 0.0682253 12.6766 0.196687L21.6062 5.81791C21.7881 5.93199 21.9379 6.09006 22.0418 6.27736C22.1456 6.46465 22.2 6.67508 22.2 6.88899C22.2 7.1029 22.1456 7.31332 22.0418 7.50062C21.9379 7.68792 21.7881 7.84598 21.6062 7.96006L12.6708 13.522C12.4685 13.6477 12.2347 13.7143 11.9962 13.7143C11.7577 13.7143 11.5239 13.6477 11.3216 13.522Z" fill="#628BF1"/>
</svg>
